<svg xmlns="http://www.w3.org/2000/svg" viewBox="0 0 374 379" fill="none">
  <g transform="translate(0,379) scale(0.1,-0.1)">
    <path fill="#C2956B" d="M1615 3774 c-482 -73 -900 -318 -1205 -703 -154 -194 -284 -461 -345
-708 -45 -179 -58 -308 -52 -518 5 -182 15 -256 52 -405 9 -36 20 -83 24 -105
20 -100 108 -301 195 -444 248 -407 649 -712 1092 -831 180 -49 277 -60 507
-60 195 0 231 3 340 25 543 113 988 439 1271 932 178 309 264 705 237 1093
-29 433 -222 865 -524 1178 -288 296 -630 474 -1049 542 -146 24 -402 26 -543
4z"/>
    <path fill="#FFFFFF" fill-rule="evenodd" d="M1820 3114 c-114 -22 -278 -102 -357 -174 -55 -51 -116 -127 -153
-189 -37 -64 -85 -205 -95 -277 -6 -45 -4 -54 20 -82 52 -62 136 -31 150 54
26 166 76 261 189 366 95 89 229 138 376 138 104 0 180 -19 274 -67 218 -114
327 -380 267 -653 -29 -132 -79 -228 -227 -431 -189 -261 -228 -337 -305 -599
-31 -107 -60 -167 -108 -228 -51 -64 -103 -98 -181 -118 -154 -39 -282 44
-325 211 -16 65 -42 95 -82 95 -38 0 -63 -18 -80 -57 -12 -30 -12 -44 -2 -87
38 -161 160 -291 314 -330 168 -44 328 5 455 141 81 87 120 162 180 353 69
216 120 316 252 497 171 231 235 352 274 521 20 84 14 307 -10 397 -53 194
-181 356 -346 440 -120 61 -185 77 -325 80 -71 2 -141 1 -155 -1z M1654 2289
c-99 -13 -141 -46 -424 -329 -166 -165 -295 -286 -345 -321 -171 -121 -313
-172 -480 -173 -114 0 -180 16 -288 70 -38 20 -72 33 -75 30 -6 -7 23 -144 39
-187 8 -21 24 -31 72 -47 253 -82 524 -38 771 126 103 68 203 158 451 408 130
130 235 228 257 237 87 40 158 9 158 -69 0 -51 -21 -87 -100 -175 -36 -39 -79
-92 -97 -116 -75 -106 -61 -233 31 -277 58 -27 64 -23 63 43 0 72 20 111 120
225 91 105 121 147 138 197 21 58 19 158 -4 211 -18 42 -77 104 -121 128 -33
18 -109 26 -166 19z M3240 2289 c-93 -14 -223 -60 -306 -108 -78 -45 -79 -46
-140 -199 -20 -48 -40 -91 -45 -96 -5 -6 -9 -16 -9 -23 0 -7 26 8 58 34 278
227 555 286 822 176 47 -19 91 -39 98 -45 9 -8 12 6 12 65 0 42 -4 87 -9 100
-24 63 -314 121 -481 96z"/>
  </g>
</svg>
